HIERARCHY
ROOT Hip
{
  OFFSET 0.0 0.0 0.0
  CHANNELS 6 Xposition Yposition Zposition Xrotation Yrotation Zrotation
  JOINT LowerSpine
  {
    OFFSET 0.0 0.061367 -0.03653
    CHANNELS 3 Xrotation Yrotation Zrotation
    JOINT MiddleSpine
    {
      OFFSET 0.0 0.056002 0.002633
      CHANNELS 3 Xrotation Yrotation Zrotation
      JOINT Chest
      {
        OFFSET 0.0 0.069296 -0.013882
        CHANNELS 3 Xrotation Yrotation Zrotation
        JOINT Neck
        {
          OFFSET 0.0 0.156156 -0.002923
          CHANNELS 3 Xrotation Yrotation Zrotation
          JOINT Head
          {
            OFFSET 0.0 0.088183 0.023986
            CHANNELS 3 Xrotation Yrotation Zrotation
            End Site
            {
              OFFSET 1e-06 0.123215 0.003678
            }
          }
        }
        JOINT LClavicle
        {
          OFFSET 0.014189 0.150698 0.046467
          CHANNELS 3 Xrotation Yrotation Zrotation
          JOINT LShoulder
          {
            OFFSET 0.082893 0.021616 -0.034976
            CHANNELS 3 Xrotation Yrotation Zrotation
            JOINT LForearm
            {
              OFFSET 0.195645 -0.000695 -0.001695
              CHANNELS 3 Xrotation Yrotation Zrotation
              JOINT LHand
              {
                OFFSET 0.163209 0.000474 -0.000977
                CHANNELS 3 Xrotation Yrotation Zrotation
                End Site
                {
                  OFFSET 0.0 0.006864 0.0
                }
              }
            }
          }
        }
        JOINT RClavicle
        {
          OFFSET -0.014189 0.150698 0.046467
          CHANNELS 3 Xrotation Yrotation Zrotation
          JOINT RShoulder
          {
            OFFSET -0.082908 0.021619 -0.034982
            CHANNELS 3 Xrotation Yrotation Zrotation
            JOINT RForearm
            {
              OFFSET -0.195645 -0.000695 -0.001695
              CHANNELS 3 Xrotation Yrotation Zrotation
              JOINT RHand
              {
                OFFSET -0.163209 0.000474 -0.000977
                CHANNELS 3 Xrotation Yrotation Zrotation
                End Site
                {
                  OFFSET 0.0 0.006864 0.0
                }
              }
            }
          }
        }
      }
    }
  }
  JOINT RThigh
  {
    OFFSET -0.072558 0.02774 -0.005953
    CHANNELS 3 Xrotation Yrotation Zrotation
    JOINT RShin
    {
      OFFSET -0.005253 -0.285537 0.0
      CHANNELS 3 Xrotation Yrotation Zrotation
      JOINT RFoot
      {
        OFFSET 0.0 -0.28038 0.0
        CHANNELS 3 Xrotation Yrotation Zrotation
        JOINT RToe
        {
          OFFSET 0.0 -0.030816 0.064441
          CHANNELS 3 Xrotation Yrotation Zrotation
          End Site
          {
            OFFSET 0.0 0.0 0.043231
          }
        }
      }
    }
  }
  JOINT LThigh
  {
    OFFSET 0.072557 0.027741 -0.005953
    CHANNELS 3 Xrotation Yrotation Zrotation
    JOINT LShin
    {
      OFFSET 0.005253 -0.285539 0.0
      CHANNELS 3 Xrotation Yrotation Zrotation
      JOINT LFoot
      {
        OFFSET 0.0 -0.28038 0.0
        CHANNELS 3 Xrotation Yrotation Zrotation
        JOINT LToe
        {
          OFFSET 0.0 -0.030816 0.064441
          CHANNELS 3 Xrotation Yrotation Zrotation
          End Site
          {
            OFFSET 0.0 0.0 0.043231
          }
        }
      }
    }
  }
}
MOTION
Frames: 6
Frame Time: 0.03333333333333333
0.031123 0.581658 0.012398 -3.35672 0.888664 1.221558 -0.26527 -0.108169 0.153372 0.626001 1.359096 0.023189 3.016289 5.853101 -0.348815 -0.57083 -0.10805 -0.039241 -0.016729 0.058409 -0.008167 -0.260731 0.207554 -14.45961 20.303337 -24.499632 -52.175266 10.205892 -31.012543 -1.808355 0.012445 0.016204 0.004459 -0.154332 0.848316 13.301868 12.98397 28.094151 54.407063 -3.732986 56.647186 8.645284 0.051829 -0.09073 0.018857 2.007414 0.066699 -3.49428 5.399132 0.329411 0.458931 -2.181044 1.580859 0.898877 0.039606 0.076032 0.008808 10.541399 9.980677 0.309054 -0.746342 6.262451 -1.070643 -2.885278 0.161743 0.250343 -0.019302 0.009219 0.015739 
0.030445 0.581749 0.013204 -3.28152 0.794692 1.230011 -0.26689 -0.110139 0.142768 0.616712 1.355574 0.013511 2.971399 5.875193 -0.326592 -0.574561 -0.110568 -0.039911 -0.017345 0.065368 -0.007867 -0.236765 0.242203 -14.469498 20.234951 -24.507341 -52.152153 10.217409 -31.090639 -1.83904 0.011588 0.014524 0.005886 -0.134571 0.796032 13.332464 12.893328 28.221346 54.387806 -3.625628 56.153019 8.504688 0.056654 -0.090023 0.019542 1.987042 0.033638 -3.498889 5.380363 0.30302 0.49185 -2.15576 1.589312 0.910793 0.042769 0.079221 0.00783 10.543507 10.10738 0.337953 -0.670956 6.390864 -1.074141 -2.867682 0.162284 0.246884 -0.021808 0.011889 0.01703 
0.029594 0.581816 0.013776 -3.218372 0.729639 1.230955 -0.261296 -0.110895 0.13097 0.609981 1.350602 0.000921 2.946492 5.901972 -0.298048 -0.569502 -0.112061 -0.040867 -0.018031 0.071567 -0.007537 -0.215782 0.273446 -14.471808 20.127718 -24.506161 -52.168007 10.193781 -31.127256 -1.864735 0.010461 0.012594 0.007695 -0.118276 0.75253 13.354615 12.702759 28.35952 54.417439 -3.501764 55.5247 8.338592 0.061206 -0.088599 0.020356 1.961459 0.005058 -3.475213 5.362363 0.283339 0.520984 -2.149272 1.591618 0.918217 0.046113 0.081476 0.00655 10.521949 10.211576 0.376545 -0.596929 6.501997 -1.069682 -2.852628 0.166788 0.243866 -0.024314 0.014527 0.018246 
0.028597 0.581863 0.014153 -3.17163 0.67587 1.232114 -0.247949 -0.112644 0.117728 0.604099 1.344712 -0.010151 2.929369 5.929601 -0.266218 -0.558519 -0.111583 -0.041016 -0.018771 0.077178 -0.007246 -0.197356 0.300179 -14.46679 19.992369 -24.511744 -52.212879 10.151119 -31.117506 -1.887114 0.00932 0.010759 0.009445 -0.105666 0.711818 13.373599 12.445261 28.512793 54.482624 -3.367736 54.784721 8.147336 0.065695 -0.08719 0.021187 1.938229 -0.004311 -3.42703 5.33369 0.276453 0.544535 -2.155813 1.590349 0.922844 0.049692 0.08428 0.005388 10.501627 10.302257 0.421743 -0.525645 6.603601 -1.064601 -2.84469 0.177457 0.243239 -0.026782 0.016978 0.019397 
0.027516 0.581907 0.014364 -3.140537 0.637825 1.228857 -0.228968 -0.115278 0.104899 0.599732 1.337704 -0.019995 2.921406 5.957441 -0.238551 -0.542247 -0.109505 -0.039797 -0.019601 0.081831 -0.007009 -0.180974 0.321726 -14.457371 19.834541 -24.525703 -52.275013 10.090308 -31.062397 -1.904922 0.008067 0.00891 0.011245 -0.096744 0.675199 13.39169 12.13238 28.672283 54.582428 -3.229332 53.964989 7.938113 0.069832 -0.085607 0.022 1.914397 0.005892 -3.355309 5.305696 0.283897 0.557854 -2.176372 1.584152 0.923762 0.053191 0.087042 0.004297 10.482282 10.378706 0.47554 -0.454173 6.695128 -1.060847 -2.843852 0.194301 0.24557 -0.029232 0.019179 0.020469 
0.02644 0.58194 0.014423 -3.122397 0.627076 1.222664 -0.207852 -0.119251 0.091526 0.597622 1.330972 -0.028896 2.926973 5.985395 -0.210823 -0.523592 -0.106367 -0.03719 -0.020479 0.086 -0.006813 -0.165493 0.340246 -14.445682 19.657465 -24.540791 -52.358059 10.013784 -30.960947 -1.92138 0.006749 0.00703 0.013058 -0.089771 0.642749 13.406462 11.767386 28.809359 54.711903 -3.127482 53.129955 7.734702 0.073945 -0.084133 0.022822 1.899598 0.035841 -3.270183 5.259855 0.303603 0.563762 -2.211318 1.572763 0.920935 0.057029 0.089732 0.003189 10.465536 10.431565 0.524023 -0.395227 6.766129 -1.047938 -2.849195 0.218203 0.251193 -0.031507 0.021307 0.021529 
